<mxfile host="65bd71144e">
    <diagram name="Page-1" id="iORbgnvBgippz8paIsoZ">
        <mxGraphModel dx="270" dy="234" grid="1" gridSize="10" guides="1" tooltips="1" connect="1" arrows="1" fold="1" page="1" pageScale="1" pageWidth="850" pageHeight="1100" math="0" shadow="0">
            <root>
                <mxCell id="0"/>
                <mxCell id="1" parent="0"/>
                <mxCell id="Ac4uGBZOYyDW821UgbGF-1" value="&lt;font&gt;T&lt;/font&gt;" style="shape=umlActor;verticalLabelPosition=bottom;verticalAlign=top;html=1;outlineConnect=0;fontFamily=Times New Roman;" parent="1" vertex="1">
                    <mxGeometry x="40" y="350" width="30" height="60" as="geometry"/>
                </mxCell>
                <mxCell id="Ac4uGBZOYyDW821UgbGF-2" value="&lt;font&gt;Login&amp;nbsp;&lt;/font&gt;" style="ellipse;whiteSpace=wrap;html=1;fontFamily=Times New Roman;" parent="1" vertex="1">
                    <mxGeometry x="160" y="260" width="70" height="30" as="geometry"/>
                </mxCell>
                <mxCell id="Ac4uGBZOYyDW821UgbGF-4" value="&lt;font&gt;Verification&lt;/font&gt;" style="ellipse;whiteSpace=wrap;html=1;fontFamily=Times New Roman;" parent="1" vertex="1">
                    <mxGeometry x="130" y="190" width="70" height="30" as="geometry"/>
                </mxCell>
                <mxCell id="Ac4uGBZOYyDW821UgbGF-5" value="&lt;font&gt;Registration&lt;/font&gt;" style="ellipse;whiteSpace=wrap;html=1;fontFamily=Times New Roman;" parent="1" vertex="1">
                    <mxGeometry x="230" y="190" width="70" height="30" as="geometry"/>
                </mxCell>
                <mxCell id="Ac4uGBZOYyDW821UgbGF-9" value="" style="endArrow=none;html=1;rounded=0;exitX=1;exitY=0.3333333333333333;exitDx=0;exitDy=0;exitPerimeter=0;entryX=0;entryY=0.5;entryDx=0;entryDy=0;fontFamily=Times New Roman;" parent="1" source="Ac4uGBZOYyDW821UgbGF-1" target="Ac4uGBZOYyDW821UgbGF-2" edge="1">
                    <mxGeometry width="50" height="50" relative="1" as="geometry">
                        <mxPoint x="240" y="420" as="sourcePoint"/>
                        <mxPoint x="290" y="370" as="targetPoint"/>
                    </mxGeometry>
                </mxCell>
                <mxCell id="Ac4uGBZOYyDW821UgbGF-10" value="&lt;font&gt;Training Aid&lt;/font&gt;" style="ellipse;whiteSpace=wrap;html=1;fontFamily=Times New Roman;" parent="1" vertex="1">
                    <mxGeometry x="160" y="310" width="70" height="30" as="geometry"/>
                </mxCell>
                <mxCell id="Ac4uGBZOYyDW821UgbGF-11" value="&lt;font&gt;Schedules&lt;br&gt;&lt;/font&gt;" style="ellipse;whiteSpace=wrap;html=1;fontFamily=Times New Roman;" parent="1" vertex="1">
                    <mxGeometry x="160" y="360" width="70" height="30" as="geometry"/>
                </mxCell>
                <mxCell id="Ac4uGBZOYyDW821UgbGF-12" value="&lt;font&gt;Breed detection&lt;br&gt;&lt;/font&gt;" style="ellipse;whiteSpace=wrap;html=1;fontFamily=Times New Roman;" parent="1" vertex="1">
                    <mxGeometry x="160" y="410" width="70" height="30" as="geometry"/>
                </mxCell>
                <mxCell id="Ac4uGBZOYyDW821UgbGF-13" value="&lt;font&gt;Disease Symptom Analysis&lt;br&gt;&lt;/font&gt;" style="ellipse;whiteSpace=wrap;html=1;fontFamily=Times New Roman;" parent="1" vertex="1">
                    <mxGeometry x="155" y="460" width="80" height="50" as="geometry"/>
                </mxCell>
                <mxCell id="Ac4uGBZOYyDW821UgbGF-14" value="" style="endArrow=none;html=1;rounded=0;exitX=1;exitY=0.3333333333333333;exitDx=0;exitDy=0;exitPerimeter=0;entryX=0;entryY=0.5;entryDx=0;entryDy=0;fontFamily=Times New Roman;" parent="1" source="Ac4uGBZOYyDW821UgbGF-1" target="Ac4uGBZOYyDW821UgbGF-10" edge="1">
                    <mxGeometry width="50" height="50" relative="1" as="geometry">
                        <mxPoint x="80" y="380" as="sourcePoint"/>
                        <mxPoint x="150" y="285" as="targetPoint"/>
                    </mxGeometry>
                </mxCell>
                <mxCell id="Ac4uGBZOYyDW821UgbGF-15" value="" style="endArrow=none;html=1;rounded=0;exitX=1;exitY=0.3333333333333333;exitDx=0;exitDy=0;exitPerimeter=0;entryX=0;entryY=0.5;entryDx=0;entryDy=0;fontFamily=Times New Roman;" parent="1" source="Ac4uGBZOYyDW821UgbGF-1" target="Ac4uGBZOYyDW821UgbGF-11" edge="1">
                    <mxGeometry width="50" height="50" relative="1" as="geometry">
                        <mxPoint x="90" y="390" as="sourcePoint"/>
                        <mxPoint x="160" y="295" as="targetPoint"/>
                    </mxGeometry>
                </mxCell>
                <mxCell id="Ac4uGBZOYyDW821UgbGF-16" value="" style="endArrow=none;html=1;rounded=0;exitX=1;exitY=0.3333333333333333;exitDx=0;exitDy=0;exitPerimeter=0;entryX=0;entryY=0.5;entryDx=0;entryDy=0;fontFamily=Times New Roman;" parent="1" source="Ac4uGBZOYyDW821UgbGF-1" target="Ac4uGBZOYyDW821UgbGF-12" edge="1">
                    <mxGeometry width="50" height="50" relative="1" as="geometry">
                        <mxPoint x="80" y="380" as="sourcePoint"/>
                        <mxPoint x="150" y="385" as="targetPoint"/>
                    </mxGeometry>
                </mxCell>
                <mxCell id="Ac4uGBZOYyDW821UgbGF-17" value="" style="endArrow=none;html=1;rounded=0;exitX=1;exitY=0.3333333333333333;exitDx=0;exitDy=0;exitPerimeter=0;entryX=0;entryY=0.5;entryDx=0;entryDy=0;fontFamily=Times New Roman;" parent="1" source="Ac4uGBZOYyDW821UgbGF-1" target="Ac4uGBZOYyDW821UgbGF-13" edge="1">
                    <mxGeometry width="50" height="50" relative="1" as="geometry">
                        <mxPoint x="80" y="380" as="sourcePoint"/>
                        <mxPoint x="150" y="435" as="targetPoint"/>
                    </mxGeometry>
                </mxCell>
                <mxCell id="Ac4uGBZOYyDW821UgbGF-19" value="&lt;font&gt;Uploading Required data&lt;br&gt;&lt;/font&gt;" style="ellipse;whiteSpace=wrap;html=1;fontFamily=Times New Roman;" parent="1" vertex="1">
                    <mxGeometry x="280" y="420" width="80" height="50" as="geometry"/>
                </mxCell>
                <mxCell id="Ac4uGBZOYyDW821UgbGF-21" value="&lt;font&gt;Notification&lt;br&gt;&lt;/font&gt;" style="ellipse;whiteSpace=wrap;html=1;fontFamily=Times New Roman;" parent="1" vertex="1">
                    <mxGeometry x="290" y="360" width="70" height="30" as="geometry"/>
                </mxCell>
                <mxCell id="Ac4uGBZOYyDW821UgbGF-23" value="&lt;font&gt;Admin&lt;/font&gt;" style="shape=umlActor;verticalLabelPosition=bottom;verticalAlign=top;html=1;outlineConnect=0;fontFamily=Times New Roman;" parent="1" vertex="1">
                    <mxGeometry x="610" y="330" width="30" height="60" as="geometry"/>
                </mxCell>
                <mxCell id="Ac4uGBZOYyDW821UgbGF-24" value="&lt;font&gt;Monitor System Overview&lt;/font&gt;" style="ellipse;whiteSpace=wrap;html=1;fontFamily=Times New Roman;" parent="1" vertex="1">
                    <mxGeometry x="425" y="350" width="90" height="60" as="geometry"/>
                </mxCell>
                <mxCell id="Ac4uGBZOYyDW821UgbGF-25" value="" style="endArrow=none;html=1;rounded=0;entryX=1;entryY=0.5;entryDx=0;entryDy=0;exitX=0;exitY=0.3333333333333333;exitDx=0;exitDy=0;exitPerimeter=0;fontFamily=Times New Roman;" parent="1" source="Ac4uGBZOYyDW821UgbGF-23" target="Ac4uGBZOYyDW821UgbGF-2" edge="1">
                    <mxGeometry width="50" height="50" relative="1" as="geometry">
                        <mxPoint x="370" y="440" as="sourcePoint"/>
                        <mxPoint x="420" y="390" as="targetPoint"/>
                    </mxGeometry>
                </mxCell>
                <mxCell id="Ac4uGBZOYyDW821UgbGF-29" value="" style="endArrow=none;html=1;rounded=0;entryX=0;entryY=0.3333333333333333;entryDx=0;entryDy=0;entryPerimeter=0;exitX=1;exitY=0.5;exitDx=0;exitDy=0;fontFamily=Times New Roman;" parent="1" source="Ac4uGBZOYyDW821UgbGF-24" target="Ac4uGBZOYyDW821UgbGF-23" edge="1">
                    <mxGeometry width="50" height="50" relative="1" as="geometry">
                        <mxPoint x="370" y="500" as="sourcePoint"/>
                        <mxPoint x="420" y="450" as="targetPoint"/>
                    </mxGeometry>
                </mxCell>
                <mxCell id="Ac4uGBZOYyDW821UgbGF-30" value="&lt;font&gt;Generate reports&lt;/font&gt;" style="ellipse;whiteSpace=wrap;html=1;fontFamily=Times New Roman;" parent="1" vertex="1">
                    <mxGeometry x="360" y="445" width="90" height="40" as="geometry"/>
                </mxCell>
                <mxCell id="Ac4uGBZOYyDW821UgbGF-31" value="&lt;font&gt;Maintain Fair usage&lt;/font&gt;" style="ellipse;whiteSpace=wrap;html=1;fontFamily=Times New Roman;" parent="1" vertex="1">
                    <mxGeometry x="470" y="447.5" width="90" height="35" as="geometry"/>
                </mxCell>
                <mxCell id="2" value="&lt;font style=&quot;font-size: 9px;&quot;&gt;&amp;lt;&amp;lt;includes&amp;gt;&amp;gt;&lt;/font&gt;" style="endArrow=classic;html=1;entryX=0.5;entryY=1;entryDx=0;entryDy=0;exitX=0.5;exitY=0;exitDx=0;exitDy=0;dashed=1;dashPattern=8 8;fontFamily=Times New Roman;fontSize=9;" edge="1" parent="1" source="Ac4uGBZOYyDW821UgbGF-2" target="Ac4uGBZOYyDW821UgbGF-4">
                    <mxGeometry x="0.24" y="8" width="50" height="50" relative="1" as="geometry">
                        <mxPoint x="180" y="280" as="sourcePoint"/>
                        <mxPoint x="230" y="230" as="targetPoint"/>
                        <mxPoint as="offset"/>
                    </mxGeometry>
                </mxCell>
                <mxCell id="3" value="&amp;lt;&amp;lt;extends&amp;gt;&amp;gt;" style="endArrow=classic;html=1;dashed=1;dashPattern=8 8;fontFamily=Times New Roman;entryX=0.5;entryY=0;entryDx=0;entryDy=0;exitX=0;exitY=1;exitDx=0;exitDy=0;fontSize=9;" edge="1" parent="1" source="Ac4uGBZOYyDW821UgbGF-5" target="Ac4uGBZOYyDW821UgbGF-2">
                    <mxGeometry x="-0.2308" y="10" width="50" height="50" relative="1" as="geometry">
                        <mxPoint x="210" y="280" as="sourcePoint"/>
                        <mxPoint x="300" y="170" as="targetPoint"/>
                        <mxPoint as="offset"/>
                    </mxGeometry>
                </mxCell>
                <mxCell id="5" value="&lt;font style=&quot;font-size: 9px;&quot;&gt;&amp;lt;&amp;lt;includes&amp;gt;&amp;gt;&lt;/font&gt;" style="endArrow=classic;html=1;entryX=0;entryY=0.5;entryDx=0;entryDy=0;exitX=1;exitY=0.5;exitDx=0;exitDy=0;dashed=1;dashPattern=8 8;fontFamily=Times New Roman;fontSize=9;" edge="1" parent="1" source="Ac4uGBZOYyDW821UgbGF-11" target="Ac4uGBZOYyDW821UgbGF-21">
                    <mxGeometry x="-0.0909" y="15" width="50" height="50" relative="1" as="geometry">
                        <mxPoint x="325.0132248969851" y="439.9976736408357" as="sourcePoint"/>
                        <mxPoint x="274.98" y="395.51" as="targetPoint"/>
                        <mxPoint as="offset"/>
                    </mxGeometry>
                </mxCell>
                <mxCell id="8" value="&lt;font style=&quot;font-size: 9px;&quot;&gt;&amp;lt;&amp;lt;includes&amp;gt;&amp;gt;&lt;/font&gt;" style="endArrow=classic;html=1;entryX=0;entryY=0.5;entryDx=0;entryDy=0;exitX=0.978;exitY=0.335;exitDx=0;exitDy=0;dashed=1;dashPattern=8 8;exitPerimeter=0;fontFamily=Times New Roman;fontSize=9;" edge="1" parent="1" source="Ac4uGBZOYyDW821UgbGF-13" target="Ac4uGBZOYyDW821UgbGF-19">
                    <mxGeometry x="-0.0824" y="-9" width="50" height="50" relative="1" as="geometry">
                        <mxPoint x="270.0332248969851" y="604.4876736408357" as="sourcePoint"/>
                        <mxPoint x="220" y="560" as="targetPoint"/>
                        <mxPoint as="offset"/>
                    </mxGeometry>
                </mxCell>
                <mxCell id="9" value="&lt;font style=&quot;font-size: 9px;&quot;&gt;&amp;lt;&amp;lt;includes&amp;gt;&amp;gt;&lt;/font&gt;" style="endArrow=classic;html=1;entryX=0;entryY=0.5;entryDx=0;entryDy=0;exitX=1;exitY=0.5;exitDx=0;exitDy=0;dashed=1;dashPattern=8 8;fontFamily=Times New Roman;fontSize=9;" edge="1" parent="1" source="Ac4uGBZOYyDW821UgbGF-12" target="Ac4uGBZOYyDW821UgbGF-19">
                    <mxGeometry x="0.0345" y="11" width="50" height="50" relative="1" as="geometry">
                        <mxPoint x="280.0332248969851" y="614.4876736408357" as="sourcePoint"/>
                        <mxPoint x="230" y="570" as="targetPoint"/>
                        <mxPoint as="offset"/>
                    </mxGeometry>
                </mxCell>
                <mxCell id="12" value="&lt;font style=&quot;font-size: 9px;&quot;&gt;&amp;lt;&amp;lt;includes&amp;gt;&amp;gt;&lt;/font&gt;" style="endArrow=classic;html=1;entryX=0.5;entryY=0;entryDx=0;entryDy=0;exitX=0.5;exitY=1;exitDx=0;exitDy=0;dashed=1;dashPattern=8 8;fontFamily=Times New Roman;fontSize=9;" edge="1" parent="1" source="Ac4uGBZOYyDW821UgbGF-24" target="Ac4uGBZOYyDW821UgbGF-31">
                    <mxGeometry x="0.224" y="4" width="50" height="50" relative="1" as="geometry">
                        <mxPoint x="559.9999999999985" y="500" as="sourcePoint"/>
                        <mxPoint x="669.9999999999985" y="500" as="targetPoint"/>
                        <mxPoint as="offset"/>
                    </mxGeometry>
                </mxCell>
                <mxCell id="13" value="&lt;font style=&quot;font-size: 9px;&quot;&gt;&amp;lt;&amp;lt;includes&amp;gt;&amp;gt;&lt;/font&gt;" style="endArrow=classic;html=1;entryX=0.5;entryY=0;entryDx=0;entryDy=0;exitX=0.5;exitY=1;exitDx=0;exitDy=0;dashed=1;dashPattern=8 8;fontFamily=Times New Roman;fontSize=9;" edge="1" parent="1" source="Ac4uGBZOYyDW821UgbGF-24" target="Ac4uGBZOYyDW821UgbGF-30">
                    <mxGeometry x="0.211" y="-1" width="50" height="50" relative="1" as="geometry">
                        <mxPoint x="569.9999999999984" y="510" as="sourcePoint"/>
                        <mxPoint x="679.9999999999986" y="510" as="targetPoint"/>
                        <mxPoint as="offset"/>
                    </mxGeometry>
                </mxCell>
                <mxCell id="14" value="" style="rounded=0;whiteSpace=wrap;html=1;fontFamily=Times New Roman;fillColor=none;" vertex="1" parent="1">
                    <mxGeometry x="120" y="180" width="450" height="340" as="geometry"/>
                </mxCell>
            </root>
        </mxGraphModel>
    </diagram>
</mxfile>